g Bottom
v 2.083706 -1.42581 2.793645
v -2.083711 -1.42581 2.793642
v -2.083711 1.42581 2.793641
v 2.083706 1.42581 2.793645
v -2.083711 -1.42581 2.793642
v -2.083708 -1.42581 -2.793645
v -2.083708 1.42581 -2.793645
v -2.083711 1.42581 2.793641
v 2.083711 -1.42581 -2.793643
v 2.083711 1.42581 -2.793643
v -2.083708 1.42581 -2.793645
v -2.083708 -1.42581 -2.793645
v 2.083711 -1.42581 -2.793643
v 2.083706 -1.42581 2.793645
v 2.083706 1.42581 2.793645
v 2.083711 1.42581 -2.793643
vt 0.7698657 0.8463928
vt 0.769866 0.717368
vt 0.6327752 0.7173699
vt 0.6327804 0.8463959
vt 0.7698664 0.717369
vt 0.7698667 0.8463943
vt 0.632778 0.8463953
vt 0.632778 0.7173689
vt 0.7731668 0.8465251
vt 0.9048945 0.8465251
vt 0.9048945 0.7030534
vt 0.7731668 0.7030534
vt 0.7698646 0.8463946
vt 0.7698644 0.7173673
vt 0.632776 0.7173674
vt 0.6327763 0.8463947
vn 0 0 1
vn 0 0 1
vn 0 0 1
vn 0 0 1
vn -1 0 -8.143203E-07
vn -1 0 -8.143203E-07
vn -1 0 -8.143203E-07
vn -1 0 -8.143203E-07
vn 0 0 -1
vn 0 0 -1
vn 0 0 -1
vn 1.495145E-06 0 -1
vn 1 0 1.228155E-06
vn 1 0 1.228155E-06
vn 1 0 1.228155E-06
vn 1 0 1.228155E-06
g Bottom_0
f 3/3/3 2/2/2 1/1/1
f 4/4/4 3/3/3 1/1/1
f 7/7/7 6/6/6 5/5/5
f 8/8/8 7/7/7 5/5/5
f 11/11/11 10/10/10 9/9/9
f 12/12/12 11/11/11 9/9/9
f 15/15/15 14/14/14 13/13/13
f 16/16/16 15/15/15 13/13/13
