g Middle1
v -1.170176 0.0473077 0.9392541
v 1.170176 -0.09710744 0.8923308
v 1.170176 0.0473077 0.9392541
v -1.170176 -0.09710744 0.8923308
v 1.170176 -0.186361 1.015178
v -1.170176 -0.186361 1.015178
v 1.170176 -0.09710744 1.138025
v -1.170176 -0.09710744 1.138025
v 1.170176 0.0473077 1.091101
v -1.170176 0.0473077 1.091101
v 1.170176 0.0473077 0.9392541
v -1.170176 0.0473077 0.9392541
v 1.170176 -0.01727681 -1.127144
v 1.170176 0.07197673 -1.004297
v -1.170176 0.07197673 -1.004297
v -1.170176 -0.01727681 -1.127144
v -1.170176 -0.01727681 -1.127144
v 1.170176 -0.1616919 -1.08022
v 1.170176 -0.01727681 -1.127144
v -1.170176 -0.1616919 -1.08022
v 1.170176 -0.1616919 -0.9283731
v -1.170176 -0.1616919 -0.9283731
v 1.170176 -0.01727681 -0.8814498
v -1.170176 -0.01727681 -0.8814498
v 1.170176 0.07197673 -1.004297
v -1.170176 0.07197673 -1.004297
v 0.7560425 0.6818406 0.7757699
v 1.012149 -0.6818407 0.9278556
v 0.9291709 0.6818406 0.8320228
v 0.8390202 -0.6818407 0.8716028
v 0.6490433 0.6818406 0.9230418
v 0.7320211 -0.6818407 1.018875
v 0.7560425 0.6818406 1.070314
v 0.8390204 -0.6818407 1.166146
v 0.9291709 0.6818406 1.014061
v 1.012149 -0.6818407 1.109894
v 0.9291709 0.6818406 0.8320228
v 1.012149 -0.6818407 0.9278556
v 1.141723 -0.6818407 -1.028345
v 1.058745 0.6818406 -0.9080443
v 0.9517455 0.6818406 -1.055316
v 1.034723 -0.6818407 -1.175617
v 0.7786171 0.6818406 -0.9990633
v 1.034723 -0.6818407 -1.175617
v 0.9517455 0.6818406 -1.055316
v 0.8615949 -0.6818407 -1.119364
v 0.7786171 0.6818406 -0.8170252
v 0.8615949 -0.6818407 -0.937326
v 0.9517456 0.6818406 -0.7607725
v 1.034723 -0.6818407 -0.8810734
v 1.058745 0.6818406 -0.9080443
v 1.141723 -0.6818407 -1.028345
v 0.8868902 -0.01727681 -1.164736
v 1.009737 0.07197673 -1.164736
v 1.009737 0.07197673 1.175617
v 0.8868902 -0.01727681 1.175617
v 0.8868902 -0.01727681 1.175617
v 0.9338136 -0.1616919 -1.164736
v 0.8868902 -0.01727681 -1.164736
v 0.9338136 -0.1616919 1.175617
v 1.085661 -0.1616919 -1.164736
v 1.085661 -0.1616919 1.175617
v 1.132584 -0.01727681 -1.164736
v 1.132584 -0.01727681 1.175617
v 1.009737 0.07197673 -1.164736
v 1.009737 0.07197673 1.175617
v -0.816653 -0.6818407 -1.028345
v -0.7381204 0.6818406 -0.9080443
v -0.8451196 0.6818406 -1.055316
v -0.9236522 -0.6818407 -1.175617
v -1.018248 0.6818406 -0.9990633
v -0.9236522 -0.6818407 -1.175617
v -0.8451196 0.6818406 -1.055316
v -1.096781 -0.6818407 -1.119364
v -1.018248 0.6818406 -0.8170252
v -1.096781 -0.6818407 -0.937326
v -0.8451196 0.6818406 -0.7607725
v -0.9236522 -0.6818407 -0.8810734
v -0.7381204 0.6818406 -0.9080443
v -0.816653 -0.6818407 -1.028345
v -0.8408226 0.6818406 0.7757699
v -0.7462268 -0.6818407 0.9278556
v -0.6676942 0.6818406 0.8320228
v -0.9193552 -0.6818407 0.8716028
v -0.9478219 0.6818406 0.9230418
v -1.026355 -0.6818407 1.018875
v -0.8408226 0.6818406 1.070314
v -0.9193552 -0.6818407 1.166146
v -0.6676942 0.6818406 1.014061
v -0.7462268 -0.6818407 1.109894
v -0.6676942 0.6818406 0.8320228
v -0.7462268 -0.6818407 0.9278556
v -1.085661 0.0473077 1.175617
v -1.132584 -0.09710744 -1.164736
v -1.085661 0.0473077 -1.164736
v -1.132584 -0.09710744 1.175617
v -1.009737 -0.186361 -1.164736
v -1.009737 -0.186361 1.175617
v -0.8868902 -0.09710744 -1.164736
v -0.8868902 -0.09710744 1.175617
v -0.9338136 0.0473077 -1.164736
v -0.9338136 0.0473077 1.175617
v -1.085661 0.0473077 -1.164736
v -1.085661 0.0473077 1.175617
v 1.170176 -0.09710744 0.8923308
v 1.170176 -0.05719212 1.015178
v 1.170176 0.0473077 0.9392541
v 1.170176 -0.186361 1.015178
v 1.170176 0.0473077 1.091101
v 1.170176 -0.09710744 1.138025
v -1.170176 -0.05719212 1.015178
v -1.170176 -0.09710744 0.8923308
v -1.170176 0.0473077 0.9392541
v -1.170176 -0.186361 1.015178
v -1.170176 0.0473077 1.091101
v -1.170176 -0.09710744 1.138025
v 1.170176 -0.05719212 -1.004297
v 1.170176 0.07197673 -1.004297
v 1.170176 -0.01727681 -1.127144
v 1.170176 -0.1616919 -1.08022
v 1.170176 -0.01727681 -0.8814498
v 1.170176 -0.1616919 -0.9283731
v -1.170176 0.07197673 -1.004297
v -1.170176 -0.05719212 -1.004297
v -1.170176 -0.01727681 -1.127144
v -1.170176 -0.01727681 -0.8814498
v -1.170176 -0.1616919 -1.08022
v -1.170176 -0.1616919 -0.9283731
v 1.009737 -0.05719212 -1.164736
v 1.009737 0.07197673 -1.164736
v 0.8868902 -0.01727681 -1.164736
v 0.9338136 -0.1616919 -1.164736
v 1.132584 -0.01727681 -1.164736
v 1.085661 -0.1616919 -1.164736
v 1.009737 0.07197673 1.175617
v 1.009737 -0.05719212 1.175617
v 0.8868902 -0.01727681 1.175617
v 1.132584 -0.01727681 1.175617
v 0.9338136 -0.1616919 1.175617
v 1.085661 -0.1616919 1.175617
v -1.132584 -0.09710744 -1.164736
v -1.009737 -0.05719212 -1.164736
v -1.085661 0.0473077 -1.164736
v -1.009737 -0.186361 -1.164736
v -0.9338136 0.0473077 -1.164736
v -0.8868902 -0.09710744 -1.164736
v -1.009737 -0.05719212 1.175617
v -1.132584 -0.09710744 1.175617
v -1.085661 0.0473077 1.175617
v -1.009737 -0.186361 1.175617
v -0.9338136 0.0473077 1.175617
v -0.8868902 -0.09710744 1.175617
vt 0.375 0.6884398
vt 0.425 0.3125
vt 0.375 0.3125
vt 0.425 0.6884398
vt 0.475 0.3125
vt 0.475 0.6884398
vt 0.525 0.3125
vt 0.525 0.6884398
vt 0.5749999 0.3125
vt 0.5749999 0.6884398
vt 0.6249999 0.3125
vt 0.6249999 0.6884398
vt 0.4 0.3125
vt 0.5999999 0.3125
vt 0.5999999 0.6884398
vt 0.4 0.6884398
vt 0.4 0.6884398
vt 0.45 0.3125
vt 0.4 0.3125
vt 0.45 0.6884398
vt 0.5 0.3125
vt 0.5 0.6884398
vt 0.55 0.3125
vt 0.55 0.6884398
vt 0.5999999 0.3125
vt 0.5999999 0.6884398
vt 0.425 0.4784866
vt 0.375 0.3930429
vt 0.375 0.4784866
vt 0.425 0.3930429
vt 0.475 0.4784866
vt 0.475 0.3930429
vt 0.525 0.4784866
vt 0.525 0.3930429
vt 0.5749999 0.4784866
vt 0.5749999 0.3930429
vt 0.6249999 0.4784866
vt 0.6249999 0.3930429
vt 0.5999999 0.3930429
vt 0.5999999 0.4784866
vt 0.4 0.4784866
vt 0.4 0.3930429
vt 0.45 0.4784866
vt 0.4 0.3930429
vt 0.4 0.4784866
vt 0.45 0.3930429
vt 0.5 0.4784866
vt 0.5 0.3930429
vt 0.55 0.4784866
vt 0.55 0.3930429
vt 0.5999999 0.4784866
vt 0.5999999 0.3930429
vt 0.4 0.3125
vt 0.5999999 0.3125
vt 0.5999999 0.6884398
vt 0.4 0.6884398
vt 0.4 0.6884398
vt 0.45 0.3125
vt 0.4 0.3125
vt 0.45 0.6884398
vt 0.5 0.3125
vt 0.5 0.6884398
vt 0.55 0.3125
vt 0.55 0.6884398
vt 0.5999999 0.3125
vt 0.5999999 0.6884398
vt 0.5999999 0.3930429
vt 0.5999999 0.4784866
vt 0.4 0.4784866
vt 0.4 0.3930429
vt 0.45 0.4784866
vt 0.4 0.3930429
vt 0.4 0.4784866
vt 0.45 0.3930429
vt 0.5 0.4784866
vt 0.5 0.3930429
vt 0.55 0.4784866
vt 0.55 0.3930429
vt 0.5999999 0.4784866
vt 0.5999999 0.3930429
vt 0.425 0.4784866
vt 0.375 0.3930429
vt 0.375 0.4784866
vt 0.425 0.3930429
vt 0.475 0.4784866
vt 0.475 0.3930429
vt 0.525 0.4784866
vt 0.525 0.3930429
vt 0.5749999 0.4784866
vt 0.5749999 0.3930429
vt 0.6249999 0.4784866
vt 0.6249999 0.3930429
vt 0.375 0.6884398
vt 0.425 0.3125
vt 0.375 0.3125
vt 0.425 0.6884398
vt 0.475 0.3125
vt 0.475 0.6884398
vt 0.525 0.3125
vt 0.525 0.6884398
vt 0.5749999 0.3125
vt 0.5749999 0.6884398
vt 0.6249999 0.3125
vt 0.6249999 0.6884398
vt 0.4517161 0.00764741
vt 0.5 0.15
vt 0.6264089 0.06440853
vt 0.34375 0.15625
vt 0.6264089 0.2480915
vt 0.4517161 0.3048526
vt 0.5 0.8375
vt 0.4517161 0.9923526
vt 0.6264089 0.9355915
vt 0.34375 0.84375
vt 0.6264089 0.7519085
vt 0.4517161 0.6951474
vt 0.5 0.15
vt 0.65625 0.15625
vt 0.5482839 0.007647395
vt 0.3735911 0.06440856
vt 0.5482839 0.3048526
vt 0.3735911 0.2480915
vt 0.65625 0.84375
vt 0.5 0.8375
vt 0.5482839 0.9923526
vt 0.5482839 0.6951474
vt 0.3735911 0.9355915
vt 0.3735911 0.7519085
vt 0.5 0.15
vt 0.65625 0.15625
vt 0.5482839 0.007647395
vt 0.3735911 0.06440856
vt 0.5482839 0.3048526
vt 0.3735911 0.2480915
vt 0.65625 0.84375
vt 0.5 0.8375
vt 0.5482839 0.9923526
vt 0.5482839 0.6951474
vt 0.3735911 0.9355915
vt 0.3735911 0.7519085
vt 0.4517161 0.00764741
vt 0.5 0.15
vt 0.6264089 0.06440853
vt 0.34375 0.15625
vt 0.6264089 0.2480915
vt 0.4517161 0.3048526
vt 0.5 0.8375
vt 0.4517161 0.9923526
vt 0.6264089 0.9355915
vt 0.34375 0.84375
vt 0.6264089 0.7519085
vt 0.4517161 0.6951474
vn -0.02207143 0.8088198 -0.5876423
vn 0.02207144 -0.308942 -0.9508247
vn 0.02207143 0.8088198 -0.5876423
vn -0.02207144 -0.308942 -0.9508247
vn 0.02207142 -0.9997564 0
vn -0.02207142 -0.9997564 0
vn 0.02207144 -0.3089415 0.9508249
vn -0.02207143 -0.3089415 0.9508249
vn 0.02207144 0.8088196 0.5876424
vn -0.02207145 0.8088196 0.5876424
vn 0.02207143 0.8088198 -0.5876423
vn -0.02207143 0.8088198 -0.5876423
vn 0.02207142 0.308942 -0.9508247
vn 0.0220714 0.9997564 0
vn -0.02207144 0.9997564 0
vn -0.02207143 0.308942 -0.9508247
vn -0.02207143 0.308942 -0.9508247
vn 0.02207143 -0.8088198 -0.5876423
vn 0.02207142 0.308942 -0.9508247
vn -0.0220714 -0.8088198 -0.5876423
vn 0.02207145 -0.8088198 0.5876423
vn -0.02207144 -0.8088198 0.5876423
vn 0.02207144 0.308942 0.9508247
vn -0.02207143 0.308942 0.9508247
vn 0.0220714 0.9997564 0
vn -0.02207144 0.9997564 0
vn -0.3147039 -0.08558192 -0.9453238
vn 0.8195378 0.009603726 -0.5729447
vn 0.7982091 0.006239576 -0.6023481
vn -0.3012856 -0.08507518 -0.9497312
vn -0.9979973 -0.06170447 -0.0139166
vn -0.9981191 -0.05977884 0.01359018
vn -0.323328 0.04674521 0.9451317
vn -0.2936406 0.0492204 0.954648
vn 0.8080984 0.09007995 0.5821192
vn 0.8032453 0.09025213 0.5887712
vn 0.7982091 0.006239576 -0.6023481
vn 0.8195378 0.009603726 -0.5729447
vn 0.9979074 0.06226052 -0.01745113
vn 0.9980989 0.05922921 0.01704283
vn 0.3018438 0.1019871 -0.9478866
vn 0.3131726 0.1023481 -0.9441652
vn -0.8211692 0.0003776489 -0.5706846
vn 0.3131726 0.1023481 -0.9441652
vn 0.3018438 0.1019871 -0.9478866
vn -0.7964869 0.004874646 -0.6046363
vn -0.8007171 -0.1008147 0.5904986
vn -0.8089127 -0.100326 0.5793056
vn 0.2922666 -0.06637841 0.9540305
vn 0.3239743 -0.06355788 0.9439285
vn 0.9980989 0.05922921 0.01704283
vn 0.9979074 0.06226052 -0.01745113
vn -0.9508247 0.3089424 -0.02207147
vn 0 0.9997564 -0.02207144
vn 0 0.9997564 0.02207144
vn -0.9508247 0.3089424 0.02207145
vn -0.9508247 0.3089424 0.02207145
vn -0.5876421 -0.8088199 -0.02207137
vn -0.9508247 0.3089424 -0.02207147
vn -0.5876421 -0.8088199 0.02207137
vn 0.5876423 -0.8088198 -0.02207137
vn 0.5876423 -0.8088198 0.02207137
vn 0.9508248 0.3089419 -0.02207146
vn 0.9508248 0.3089419 0.02207148
vn 0 0.9997564 -0.02207144
vn 0 0.9997564 0.02207144
vn 0.9982858 -0.05598496 -0.01705949
vn 0.9981045 -0.05901857 0.01744654
vn 0.3233842 0.06465911 -0.9440562
vn 0.2928303 0.06727776 -0.9537946
vn -0.8093413 0.09770063 -0.5791557
vn 0.2928303 0.06727776 -0.9537946
vn 0.3233842 0.06465911 -0.9440562
vn -0.8006998 0.09824389 -0.5909551
vn -0.7966926 -0.007433036 0.6043391
vn -0.8209461 -0.003094976 0.5709973
vn 0.3126208 -0.1013214 0.9444587
vn 0.3024356 -0.1010296 0.9478005
vn 0.9981045 -0.05901857 0.01744654
vn 0.9982858 -0.05598496 -0.01705949
vn -0.2942083 -0.05012932 -0.9544257
vn 0.8085045 -0.08745757 -0.5819551
vn 0.8032075 -0.08766264 -0.5892137
vn -0.3227411 -0.04784324 -0.9452773
vn -0.9983079 0.05653518 -0.0136035
vn -0.9981927 0.05846227 0.01391306
vn -0.3018757 0.08411989 0.9496288
vn -0.3141475 0.08454364 0.9456023
vn 0.8193366 -0.00689783 0.5732714
vn 0.7984381 -0.003670798 0.6020657
vn 0.8032075 -0.08766264 -0.5892137
vn 0.8085045 -0.08745757 -0.5819551
vn -0.5876423 0.8088198 0.0220714
vn -0.9508248 -0.3089419 -0.02207144
vn -0.5876423 0.8088198 -0.02207143
vn -0.9508248 -0.3089419 0.02207144
vn 0 -0.9997564 -0.02207139
vn 0 -0.9997564 0.02207139
vn 0.9508248 -0.3089419 -0.02207143
vn 0.9508248 -0.3089419 0.02207143
vn 0.5876423 0.8088198 -0.02207139
vn 0.5876423 0.8088198 0.02207142
vn -0.5876423 0.8088198 -0.02207143
vn -0.5876423 0.8088198 0.0220714
vn 0.02207144 -0.308942 -0.9508247
vn 1 1.244731E-07 0
vn 0.02207143 0.8088198 -0.5876423
vn 0.02207142 -0.9997564 0
vn 0.02207144 0.8088196 0.5876424
vn 0.02207144 -0.3089415 0.9508249
vn -1 2.489468E-07 0
vn -0.02207144 -0.308942 -0.9508247
vn -0.02207143 0.8088198 -0.5876423
vn -0.02207142 -0.9997564 0
vn -0.02207145 0.8088196 0.5876424
vn -0.02207143 -0.3089415 0.9508249
vn 1 1.244734E-07 0
vn 0.0220714 0.9997564 0
vn 0.02207142 0.308942 -0.9508247
vn 0.02207143 -0.8088198 -0.5876423
vn 0.02207144 0.308942 0.9508247
vn 0.02207145 -0.8088198 0.5876423
vn -0.02207144 0.9997564 0
vn -1 2.489464E-07 0
vn -0.02207143 0.308942 -0.9508247
vn -0.02207143 0.308942 0.9508247
vn -0.0220714 -0.8088198 -0.5876423
vn -0.02207144 -0.8088198 0.5876423
vn 0 0 -1
vn 0 0.9997564 -0.02207144
vn -0.9508247 0.3089424 -0.02207147
vn -0.5876421 -0.8088199 -0.02207137
vn 0.9508248 0.3089419 -0.02207146
vn 0.5876423 -0.8088198 -0.02207137
vn 0 0.9997564 0.02207144
vn 0 0 1
vn -0.9508247 0.3089424 0.02207145
vn 0.9508248 0.3089419 0.02207148
vn -0.5876421 -0.8088199 0.02207137
vn 0.5876423 -0.8088198 0.02207137
vn -0.9508248 -0.3089419 -0.02207144
vn 0 0 -1
vn -0.5876423 0.8088198 -0.02207143
vn 0 -0.9997564 -0.02207139
vn 0.5876423 0.8088198 -0.02207139
vn 0.9508248 -0.3089419 -0.02207143
vn 0 0 1
vn -0.9508248 -0.3089419 0.02207144
vn -0.5876423 0.8088198 0.0220714
vn 0 -0.9997564 0.02207139
vn 0.5876423 0.8088198 0.02207142
vn 0.9508248 -0.3089419 0.02207143
g Middle1_0
f 3/3/3 2/2/2 1/1/1
f 2/2/2 4/4/4 1/1/1
f 2/2/2 5/5/5 4/4/4
f 5/5/5 6/6/6 4/4/4
f 5/5/5 7/7/7 6/6/6
f 7/7/7 8/8/8 6/6/6
f 7/7/7 9/9/9 8/8/8
f 9/9/9 10/10/10 8/8/8
f 9/9/9 11/11/11 10/10/10
f 11/11/11 12/12/12 10/10/10
f 15/15/15 14/14/14 13/13/13
f 16/16/16 15/15/15 13/13/13
f 19/19/19 18/18/18 17/17/17
f 18/18/18 20/20/20 17/17/17
f 18/18/18 21/21/21 20/20/20
f 21/21/21 22/22/22 20/20/20
f 21/21/21 23/23/23 22/22/22
f 23/23/23 24/24/24 22/22/22
f 23/23/23 25/25/25 24/24/24
f 25/25/25 26/26/26 24/24/24
f 29/29/29 28/28/28 27/27/27
f 28/28/28 30/30/30 27/27/27
f 27/27/27 30/30/30 31/31/31
f 30/30/30 32/32/32 31/31/31
f 31/31/31 32/32/32 33/33/33
f 32/32/32 34/34/34 33/33/33
f 33/33/33 34/34/34 35/35/35
f 34/34/34 36/36/36 35/35/35
f 35/35/35 36/36/36 37/37/37
f 36/36/36 38/38/38 37/37/37
f 41/41/41 40/40/40 39/39/39
f 42/42/42 41/41/41 39/39/39
f 45/45/45 44/44/44 43/43/43
f 44/44/44 46/46/46 43/43/43
f 43/43/43 46/46/46 47/47/47
f 46/46/46 48/48/48 47/47/47
f 47/47/47 48/48/48 49/49/49
f 48/48/48 50/50/50 49/49/49
f 49/49/49 50/50/50 51/51/51
f 50/50/50 52/52/52 51/51/51
f 55/55/55 54/54/54 53/53/53
f 56/56/56 55/55/55 53/53/53
f 59/59/59 58/58/58 57/57/57
f 58/58/58 60/60/60 57/57/57
f 58/58/58 61/61/61 60/60/60
f 61/61/61 62/62/62 60/60/60
f 61/61/61 63/63/63 62/62/62
f 63/63/63 64/64/64 62/62/62
f 63/63/63 65/65/65 64/64/64
f 65/65/65 66/66/66 64/64/64
f 69/69/69 68/68/68 67/67/67
f 70/70/70 69/69/69 67/67/67
f 73/73/73 72/72/72 71/71/71
f 72/72/72 74/74/74 71/71/71
f 71/71/71 74/74/74 75/75/75
f 74/74/74 76/76/76 75/75/75
f 75/75/75 76/76/76 77/77/77
f 76/76/76 78/78/78 77/77/77
f 77/77/77 78/78/78 79/79/79
f 78/78/78 80/80/80 79/79/79
f 83/83/83 82/82/82 81/81/81
f 82/82/82 84/84/84 81/81/81
f 81/81/81 84/84/84 85/85/85
f 84/84/84 86/86/86 85/85/85
f 85/85/85 86/86/86 87/87/87
f 86/86/86 88/88/88 87/87/87
f 87/87/87 88/88/88 89/89/89
f 88/88/88 90/90/90 89/89/89
f 89/89/89 90/90/90 91/91/91
f 90/90/90 92/92/92 91/91/91
f 95/95/95 94/94/94 93/93/93
f 94/94/94 96/96/96 93/93/93
f 94/94/94 97/97/97 96/96/96
f 97/97/97 98/98/98 96/96/96
f 97/97/97 99/99/99 98/98/98
f 99/99/99 100/100/100 98/98/98
f 99/99/99 101/101/101 100/100/100
f 101/101/101 102/102/102 100/100/100
f 101/101/101 103/103/103 102/102/102
f 103/103/103 104/104/104 102/102/102
f 107/107/107 106/106/106 105/105/105
f 105/105/105 106/106/106 108/108/108
f 109/109/109 106/106/106 107/107/107
f 108/108/108 106/106/106 110/110/110
f 110/110/110 106/106/106 109/109/109
f 113/113/113 112/112/112 111/111/111
f 112/112/112 114/114/114 111/111/111
f 115/115/115 113/113/113 111/111/111
f 114/114/114 116/116/116 111/111/111
f 116/116/116 115/115/115 111/111/111
f 119/119/119 118/118/118 117/117/117
f 119/119/119 117/117/117 120/120/120
f 121/121/121 117/117/117 118/118/118
f 120/120/120 117/117/117 122/122/122
f 122/122/122 117/117/117 121/121/121
f 125/125/125 124/124/124 123/123/123
f 126/126/126 123/123/123 124/124/124
f 125/125/125 127/127/127 124/124/124
f 128/128/128 126/126/126 124/124/124
f 127/127/127 128/128/128 124/124/124
f 131/131/131 130/130/130 129/129/129
f 131/131/131 129/129/129 132/132/132
f 133/133/133 129/129/129 130/130/130
f 132/132/132 129/129/129 134/134/134
f 134/134/134 129/129/129 133/133/133
f 137/137/137 136/136/136 135/135/135
f 138/138/138 135/135/135 136/136/136
f 137/137/137 139/139/139 136/136/136
f 140/140/140 138/138/138 136/136/136
f 139/139/139 140/140/140 136/136/136
f 143/143/143 142/142/142 141/141/141
f 141/141/141 142/142/142 144/144/144
f 145/145/145 142/142/142 143/143/143
f 144/144/144 142/142/142 146/146/146
f 146/146/146 142/142/142 145/145/145
f 149/149/149 148/148/148 147/147/147
f 148/148/148 150/150/150 147/147/147
f 151/151/151 149/149/149 147/147/147
f 150/150/150 152/152/152 147/147/147
f 152/152/152 151/151/151 147/147/147
