g Middle1
v -3.954247 2.545848 0.8644729
v -1.313008 1.255825 1.597639
v -4.101783 1.255825 1.597639
v -3.643929 -3.213799 2.860887
v -3.643929 0.06752914 2.860887
v 3.789794 0.06752914 2.860887
v 3.789794 -3.213799 2.860887
v 3.789794 0.06752914 -2.355536
v -3.643929 0.06752914 -2.355536
v -3.643929 -3.213799 -2.355536
v 3.789794 -3.213799 -2.355536
v 3.789794 2.468701 0.2526755
v 3.789794 1.020531 -1.05143
v 3.789794 -0.6201332 0.2526755
v 3.789794 1.020531 1.556781
v 3.789794 0.06752914 2.860887
v 3.789794 -3.213799 2.860887
v 3.789794 -3.213799 0.2526755
v -3.643929 2.861924 0.2526755
v -3.643929 1.020531 -1.05143
v 1.945095 2.468702 0.2526755
v -3.643929 1.020531 1.556781
v 3.789794 1.020531 1.556781
v -3.643929 0.06752914 2.860887
v 3.789794 0.06752914 2.860887
v 3.789794 2.468701 0.2526755
v 1.945095 2.468702 0.2526755
v 3.789794 1.020531 -1.05143
v -3.643929 1.020531 -1.05143
v 3.789794 0.06752914 -2.355536
v -3.643929 0.06752914 -2.355536
v -3.643929 0.06752914 2.860887
v -3.643929 -3.213799 2.860887
v -3.643929 -3.213799 0.2526755
v -3.643929 -0.6201332 0.2526755
v -3.643929 -3.213799 -2.355536
v -3.643929 1.020531 1.556781
v -3.643929 0.06752914 -2.355536
v -3.643929 2.861924 0.2526755
v -3.643929 1.020531 -1.05143
v 4.000414 0.5329689 -2.091345
v 1.126067 0.1001552 -2.752631
v 4.000414 0.1001552 -2.752631
v 1.126067 0.532968 -2.091345
v 4.101783 1.255825 -1.208035
v 1.227436 1.255825 -1.208034
v -1.165471 0.532968 -2.091345
v -1.165471 0.1001555 -2.752631
v -3.954247 0.1001552 -2.752631
v -3.954247 0.532968 -2.091345
v -1.064102 1.255825 -1.208034
v -3.852877 1.255825 -1.208034
v 1.126067 1.99177 -0.4748679
v 4.000414 1.95266 -0.474868
v -1.165471 2.13143 -0.4748679
v 1.126067 2.65972 0.1948026
v 4.000414 2.620611 0.1948027
v -1.165472 2.799381 0.1948026
v -3.954247 2.545848 -0.4748679
v -3.852877 1.255825 -1.208034
v -3.954247 3.213799 0.1948026
v -3.954247 0.1001552 -2.752631
v -3.954247 0.3570451 -1.951812
v -3.954247 -0.07576767 -2.613099
v -3.954247 0.532968 -2.091345
v -3.852877 1.079902 -1.068502
v -3.852877 1.255825 -1.208034
v -3.954247 2.369925 -0.3353366
v -3.954247 2.545848 -0.4748679
v -3.954247 2.933981 0.1948026
v -3.954247 3.213799 0.1948026
v -3.954247 2.545848 0.8644729
v -3.954247 2.369925 0.7249417
v -4.101783 1.255825 1.597639
v -4.101783 1.079902 1.458108
v -3.954247 0.5329689 2.48095
v -3.954247 0.3570457 2.341419
v -3.954246 0.1001561 3.142236
v -3.954246 -0.07576767 3.002705
v -3.954247 0.3570451 -1.951812
v -1.064102 1.079902 -1.068502
v -1.165471 0.3570451 -1.951814
v -3.852877 1.079902 -1.068502
v -3.954247 2.369925 -0.3353366
v -1.165471 1.776737 -0.3353366
v -1.165471 2.340793 0.1948026
v -3.954247 2.933981 0.1948026
v -3.954247 -0.07576767 -2.613099
v -1.165471 0.1001555 -2.752631
v -3.954247 0.1001552 -2.752631
v -1.165471 -0.07576767 -2.613099
v -3.954247 0.3570451 -1.951812
v -1.165471 -0.07576767 -2.613099
v -3.954247 -0.07576767 -2.613099
v -1.165471 0.3570451 -1.951814
v 1.126067 -0.1688414 3.230366
v 4.000414 0.03609055 3.318167
v 4.000414 -0.1688414 3.230366
v 1.126067 0.03609024 3.318167
v -1.313007 1.079902 1.458108
v -3.954247 0.3570457 2.341419
v -1.165471 0.3570451 2.341419
v -4.101783 1.079902 1.458108
v -3.954247 2.369925 0.7249417
v -1.165471 1.776737 0.7249417
v -1.165471 2.340793 0.1948026
v -3.954247 2.933981 0.1948026
v -1.313008 1.255825 1.597639
v -3.954247 0.5329689 2.48095
v -4.101783 1.255825 1.597639
v -1.165471 0.5329689 2.48095
v -3.954246 0.1001561 3.142236
v -1.165471 0.1001561 3.142236
v 1.126067 0.5329689 2.48095
v 1.126067 0.1001561 3.142236
v 0.9785303 1.255825 1.597639
v -1.165471 2.13143 0.8644729
v -3.954247 2.545848 0.8644729
v -1.165472 2.799381 0.1948026
v -3.954247 3.213799 0.1948026
v 1.126067 2.65972 0.1948026
v 1.126067 1.99177 0.8644729
v 4.000414 1.95266 0.8644729
v 4.000414 2.620611 0.1948027
v 3.852876 1.255825 1.597639
v 4.000414 0.5329689 2.48095
v 4.000414 0.1001561 3.142236
v 4.000414 0.03609055 3.318167
v 1.126067 0.03609024 3.318167
v -3.954246 -0.07576767 3.002705
v -1.165471 0.1001561 3.142236
v -1.165471 -0.07576767 3.002705
v -3.954246 0.1001561 3.142236
v -1.165471 -0.1276033 3.040916
v 1.126067 0.06913162 3.146809
v 1.126067 -0.1276033 3.040916
v -1.165471 0.06913162 3.146809
v -3.954247 0.3570457 2.341419
v -1.165471 -0.07576767 3.002705
v -1.165471 0.3570451 2.341419
v -3.954246 -0.07576767 3.002705
v 4.075294 -0.01777328 -3.147664
v 4.075294 -0.1825383 -3.016983
v 4.000414 -0.07576767 -2.613099
v 4.000414 0.1001552 -2.752631
v 4.000414 0.3570451 -1.951814
v 4.000414 0.5329689 -2.091345
v 4.101783 1.079902 -1.068503
v 4.101783 1.255825 -1.208035
v 4.000414 1.776737 -0.3353364
v 4.000414 1.95266 -0.474868
v 4.000414 2.340793 0.1948027
v 4.000414 2.620611 0.1948027
v 4.000414 1.95266 0.8644729
v 4.000414 1.776737 0.7249417
v 3.852876 1.255825 1.597639
v 3.852877 1.079902 1.458108
v 4.000414 0.5329689 2.48095
v 4.000414 0.3570451 2.341419
v 4.000414 0.1001561 3.142236
v 4.000414 -0.07576767 3.002705
v 4.075294 0.05814468 3.275428
v 4.075294 -0.1066197 3.144746
vt 0.1864714 0.4464721
vt 0.1536984 0.3793716
vt 0.1536984 0.4502202
vt 0.8173011 0.5322084
vt 0.8173011 0.667933
vt 0.9530258 0.667933
vt 0.9530258 0.5322084
vt 0.5458518 0.667933
vt 0.6815764 0.667933
vt 0.6815764 0.5322084
vt 0.5458518 0.5322084
vt 0.7494388 0.8036577
vt 0.7155076 0.8036577
vt 0.7494388 0.87152
vt 0.78337 0.8036577
vt 0.8173011 0.8036577
vt 0.8173011 0.9393824
vt 0.7494388 0.9393824
vt 0.7494388 0.667933
vt 0.7155076 0.667933
vt 0.7494388 0.7357954
vt 0.78337 0.667933
vt 0.78337 0.8036577
vt 0.8173011 0.667933
vt 0.8173011 0.8036577
vt 0.7494388 0.8036577
vt 0.7494388 0.7357954
vt 0.7155076 0.8036577
vt 0.7155076 0.667933
vt 0.5458518 0.667933
vt 0.6815764 0.667933
vt 0.8173011 0.667933
vt 0.8173011 0.5322084
vt 0.7494388 0.5322084
vt 0.7494388 0.6000707
vt 0.6815764 0.5322084
vt 0.78337 0.667933
vt 0.6815764 0.667933
vt 0.7494388 0.667933
vt 0.7155076 0.667933
vt 0.2911267 0.09802018
vt 0.3079266 0.1710427
vt 0.3079266 0.09802018
vt 0.2911267 0.1710427
vt 0.2686862 0.09544492
vt 0.2686862 0.1684675
vt 0.2911267 0.229259
vt 0.3079266 0.229259
vt 0.3079266 0.3001077
vt 0.2911267 0.3001077
vt 0.2686861 0.2266838
vt 0.2686862 0.2975324
vt 0.2500602 0.1710427
vt 0.2500602 0.09802018
vt 0.2500602 0.229259
vt 0.2330472 0.1710427
vt 0.2330472 0.09802018
vt 0.2330472 0.2292591
vt 0.2500603 0.3001077
vt 0.2800693 0.2924515
vt 0.2330472 0.3001077
vt 0.3856696 0.4096283
vt 0.392196 0.3892835
vt 0.3812004 0.4060835
vt 0.3966653 0.3928284
vt 0.4105601 0.3668431
vt 0.4150294 0.3703879
vt 0.443333 0.3482171
vt 0.4478023 0.3517619
vt 0.4576628 0.334749
vt 0.4647715 0.334749
vt 0.4478023 0.3177361
vt 0.443333 0.3212808
vt 0.4150294 0.29911
vt 0.4105601 0.3026548
vt 0.3966653 0.2766696
vt 0.392196 0.2802143
vt 0.3856697 0.2598696
vt 0.3812004 0.2634144
vt 0.3058603 0.316098
vt 0.3792842 0.3344621
vt 0.376709 0.316098
vt 0.3084356 0.3344621
vt 0.3058603 0.3672351
vt 0.376709 0.3521652
vt 0.376709 0.366495
vt 0.3058603 0.3815648
vt 0.1856197 0.3759511
vt 0.1820749 0.3051025
vt 0.1820749 0.3759511
vt 0.1856197 0.3051025
vt 0.3058603 0.316098
vt 0.376709 0.3051025
vt 0.3058603 0.3051025
vt 0.376709 0.316098
vt 0.1875359 0.378125
vt 0.1927421 0.3051025
vt 0.1875359 0.3051025
vt 0.1927421 0.378125
vt 0.300196 0.3522052
vt 0.2330955 0.3705692
vt 0.3039442 0.3705693
vt 0.2293474 0.3522052
vt 0.2330955 0.3194322
vt 0.3039442 0.3345021
vt 0.3039442 0.3201723
vt 0.2330955 0.3051025
vt 0.1974083 0.2330072
vt 0.1749679 0.3001077
vt 0.1974083 0.3038558
vt 0.1749679 0.229259
vt 0.1581679 0.3001076
vt 0.1581679 0.229259
vt 0.1749679 0.1710427
vt 0.1581679 0.1710427
vt 0.1974083 0.1747909
vt 0.2160343 0.229259
vt 0.2160343 0.3001077
vt 0.2330472 0.2292591
vt 0.2330472 0.3001077
vt 0.2330472 0.1710427
vt 0.2160343 0.1710427
vt 0.2160343 0.09802018
vt 0.2330472 0.09802018
vt 0.1974083 0.1017684
vt 0.1749679 0.09802018
vt 0.1581679 0.09802018
vt 0.1536984 0.09802018
vt 0.1536984 0.1710427
vt 0.176614 0.3759511
vt 0.1801587 0.3051025
vt 0.176614 0.3051025
vt 0.1801587 0.3759511
vt 0 0
vt 0 0
vt 0 0
vt 0 0
vt 0.2330955 0.3705692
vt 0.3039442 0.3815648
vt 0.3039442 0.3705693
vt 0.2330956 0.3815648
vt 0.3143789 0.09544492
vt 0.3101931 0.09876488
vt 0.3129056 0.1090255
vt 0.3173749 0.1054807
vt 0.3239012 0.1258254
vt 0.3283705 0.1222806
vt 0.3422652 0.1482658
vt 0.3467346 0.1447211
vt 0.3599683 0.1668919
vt 0.3644376 0.1633471
vt 0.3742981 0.18036
vt 0.3814068 0.18036
vt 0.3644376 0.1973729
vt 0.3599683 0.1938282
vt 0.3467346 0.2159989
vt 0.3422652 0.2124542
vt 0.3283705 0.2384394
vt 0.3239012 0.2348946
vt 0.3173749 0.2552393
vt 0.3129056 0.2516946
vt 0.3163075 0.258623
vt 0.3121217 0.2553031
vn 0.07879597 0.6462374 0.7590576
vn 0.01155702 0.6960126 0.7179365
vn 0 0.6508011 0.7592483
vn 0 0 1
vn 0 0 1
vn 0 0 1
vn 0 0 1
vn 0 0 -1
vn 0 0 -1
vn 0 0 -1
vn 0 0 -1
vn 1 0 0
vn 1 0 0
vn 1 0 0
vn 1 0 0
vn 1 0 0
vn 1 0 0
vn 1 0 0
vn 0.03515637 0.9993818 0
vn 0.01246126 0.7084667 -0.7056342
vn 0.01787355 0.9998403 0
vn 0.01246126 0.7084667 0.7056341
vn 0 1 0
vn 0 0.8073909 0.590017
vn 0 1 0
vn 0 1 0
vn 0 1 0
vn 0 1 0
vn 0.01246126 0.7084667 -0.7056342
vn 0 1 0
vn 0 0.8073907 -0.5900171
vn -1 0 0
vn -1 0 0
vn -1 0 0
vn -1 0 0
vn -1 0 0
vn -1 0 0
vn -1 0 0
vn -1 0 0
vn -1 0 0
vn 0 0.8069409 -0.5906321
vn 0 0.8766335 -0.4811589
vn 0 0.8766332 -0.4811592
vn 0 0.8069411 -0.5906318
vn 0.001448003 0.7486004 -0.6630199
vn 0.005243656 0.7350097 -0.6780363
vn 0 0.8069412 -0.5906318
vn 0 0.8367186 -0.5476331
vn 0 0.8367184 -0.5476333
vn 0 0.8074267 -0.5899678
vn 0.01089845 0.6985761 -0.7154528
vn 0 0.6524104 -0.7578658
vn 0.02522936 0.7092618 -0.7044935
vn 0.004960785 0.7167436 -0.6973191
vn 0.06643716 0.6816563 -0.72865
vn 0.03815693 0.9992718 0
vn 0.006853125 0.9999765 0
vn 0.1085067 0.9940957 0
vn 0.07990345 0.6507716 -0.7550575
vn 0 0.6524104 -0.7578658
vn 0.1469879 0.9891383 0
vn -1 0 0
vn -0.9993052 0.02316076 0.02920123
vn -1 0 0
vn -0.9987026 0.03164307 0.03989578
vn -0.9994022 0.02148522 0.02708874
vn -0.999899 -0.008832717 -0.01113636
vn -0.998827 -0.03008872 -0.03793607
vn -0.9997184 -0.01474783 -0.01859417
vn -1 0 0
vn -1 0 0
vn -0.999404 0.02145099 -0.02704558
vn -0.9975222 0.04371763 -0.05511954
vn -0.9997862 0.01285134 -0.0162031
vn -0.9987378 -0.03121259 0.03935316
vn -0.9972615 -0.04595664 0.05794258
vn -0.9985318 -0.03366164 0.04244092
vn -1 0 0
vn -1 0 0
vn 0 -0.8074268 0.5899678
vn -0.01798926 -0.7282043 0.6851239
vn 0 -0.806941 0.5906321
vn 0 -0.6524104 0.7578658
vn -0.1135376 -0.6477787 0.7533206
vn -0.07582762 -0.7087762 0.7013462
vn -0.1144617 -0.9934277 0
vn -0.2080508 -0.978118 0
vn 0 -0.6214132 -0.783483
vn 0 -0.6214131 -0.783483
vn 0 -0.6214132 -0.783483
vn 0 -0.6214131 -0.7834831
vn 0 -0.8074268 0.5899678
vn 0 -0.8367184 0.5476333
vn 0 -0.8367184 0.5476333
vn 0 -0.806941 0.5906321
vn 0 -0.3938183 0.9191883
vn 0 -0.3938179 0.9191885
vn 0 -0.3938178 0.9191885
vn 0 -0.3938184 0.9191883
vn -0.01919017 -0.7237045 -0.6898433
vn 0 -0.8062591 -0.5915627
vn 0 -0.806941 -0.590632
vn 0 -0.650801 -0.7592484
vn -0.111878 -0.6429276 -0.7577121
vn -0.07088488 -0.7011462 -0.7094852
vn -0.1144617 -0.9934277 0
vn -0.2080508 -0.978118 0
vn 0.01155702 0.6960126 0.7179365
vn 0 0.8062592 0.5915624
vn 0 0.6508011 0.7592483
vn 0 0.8069411 0.5906318
vn 0 0.8367183 0.5476335
vn 0 0.8367184 0.5476332
vn 0 0.8069413 0.5906318
vn 0 0.8777419 0.4791337
vn 0.005650867 0.7336407 0.6795141
vn 0.06442443 0.6772333 0.7329423
vn 0.07879597 0.6462374 0.7590576
vn 0.1085067 0.9940957 0
vn 0.1469879 0.9891383 0
vn 0.03815693 0.9992718 0
vn 0.02430657 0.70734 0.7064555
vn 0.004749863 0.7163187 0.697757
vn 0.006853125 0.9999765 0
vn 0.001581704 0.7482392 0.6634272
vn 0 0.8069411 0.5906318
vn 0 0.8777424 0.479133
vn 0 0.939638 0.3421701
vn 0 0.9396369 0.342173
vn 0 -0.6214122 0.7834838
vn 0 -0.621413 0.7834833
vn 0 -0.6214131 0.7834831
vn 0 -0.6214122 0.7834839
vn 0 -0.4739602 0.8805463
vn 0 -0.4739602 0.8805463
vn 0 -0.4739601 0.8805463
vn 0 -0.4739601 0.8805463
vn 0 -0.8062591 -0.5915627
vn 0 -0.8367182 -0.5476337
vn 0 -0.806941 -0.590632
vn 0 -0.836718 -0.5476338
vn 0.9999361 0.01130823 0
vn 0.9999361 0.01130823 0
vn 0.9999361 0.01130823 0
vn 0.9999361 0.01130823 0
vn 0.9999361 0.01130823 0
vn 0.9999361 0.01130823 0
vn 0.9999361 0.01130823 0
vn 0.9999361 0.01130823 0
vn 0.9999361 0.01130823 0
vn 0.9999361 0.01130823 0
vn 0.9999361 0.01130823 0
vn 0.9999361 0.01130823 0
vn 0.9999361 0.01130823 0
vn 0.9999361 0.01130823 0
vn 0.9999361 0.01130823 0
vn 0.9999361 0.01130823 0
vn 0.9999361 0.01130823 0
vn 0.9999361 0.01130823 0
vn 0.9999361 0.01130823 0
vn 0.9999361 0.01130823 0
vn 0.9999361 0.01130823 0
vn 0.9999361 0.01130823 0
g Middle1_0
f 3/3/3 2/2/2 1/1/1
f 6/6/6 5/5/5 4/4/4
f 7/7/7 6/6/6 4/4/4
f 10/10/10 9/9/9 8/8/8
f 11/11/11 10/10/10 8/8/8
f 14/14/14 13/13/13 12/12/12
f 14/14/14 12/12/12 15/15/15
f 14/14/14 15/15/15 16/16/16
f 14/14/14 16/16/16 17/17/17
f 17/17/17 18/18/18 14/14/14
f 21/21/21 20/20/20 19/19/19
f 21/21/21 19/19/19 22/22/22
f 22/22/22 24/24/24 23/23/23
f 24/24/24 25/25/25 23/23/23
f 22/22/22 23/23/23 26/26/26
f 27/27/27 22/22/22 26/26/26
f 27/27/27 26/26/26 28/28/28
f 29/29/29 27/27/27 28/28/28
f 29/29/29 28/28/28 30/30/30
f 30/30/30 31/31/31 29/29/29
f 34/34/34 33/33/33 32/32/32
f 32/32/32 35/35/35 34/34/34
f 36/36/36 34/34/34 35/35/35
f 32/32/32 37/37/37 35/35/35
f 35/35/35 38/38/38 36/36/36
f 35/35/35 37/37/37 39/39/39
f 35/35/35 40/40/40 38/38/38
f 35/35/35 39/39/39 40/40/40
f 43/43/43 42/42/42 41/41/41
f 44/44/44 41/41/41 42/42/42
f 41/41/41 44/44/44 45/45/45
f 46/46/46 45/45/45 44/44/44
f 44/44/44 47/47/47 46/46/46
f 47/47/47 44/44/44 48/48/48
f 48/48/48 49/49/49 47/47/47
f 50/50/50 47/47/47 49/49/49
f 47/47/47 50/50/50 51/51/51
f 51/51/51 46/46/46 47/47/47
f 52/52/52 51/51/51 50/50/50
f 46/46/46 53/53/53 45/45/45
f 54/54/54 45/45/45 53/53/53
f 51/51/51 55/55/55 46/46/46
f 53/53/53 46/46/46 55/55/55
f 53/53/53 56/56/56 54/54/54
f 53/53/53 55/55/55 56/56/56
f 57/57/57 54/54/54 56/56/56
f 58/58/58 56/56/56 55/55/55
f 55/55/55 51/51/51 59/59/59
f 55/55/55 59/59/59 58/58/58
f 60/60/60 59/59/59 51/51/51
f 61/61/61 58/58/58 59/59/59
f 64/64/64 63/63/63 62/62/62
f 65/65/65 62/62/62 63/63/63
f 63/63/63 66/66/66 65/65/65
f 67/67/67 65/65/65 66/66/66
f 66/66/66 68/68/68 67/67/67
f 69/69/69 67/67/67 68/68/68
f 68/68/68 70/70/70 69/69/69
f 71/71/71 69/69/69 70/70/70
f 71/71/71 70/70/70 72/72/72
f 73/73/73 72/72/72 70/70/70
f 72/72/72 73/73/73 74/74/74
f 75/75/75 74/74/74 73/73/73
f 74/74/74 75/75/75 76/76/76
f 77/77/77 76/76/76 75/75/75
f 76/76/76 77/77/77 78/78/78
f 79/79/79 78/78/78 77/77/77
f 82/82/82 81/81/81 80/80/80
f 83/83/83 80/80/80 81/81/81
f 83/83/83 81/81/81 84/84/84
f 85/85/85 84/84/84 81/81/81
f 85/85/85 86/86/86 84/84/84
f 87/87/87 84/84/84 86/86/86
f 90/90/90 89/89/89 88/88/88
f 91/91/91 88/88/88 89/89/89
f 94/94/94 93/93/93 92/92/92
f 95/95/95 92/92/92 93/93/93
f 98/98/98 97/97/97 96/96/96
f 99/99/99 96/96/96 97/97/97
f 102/102/102 101/101/101 100/100/100
f 103/103/103 100/100/100 101/101/101
f 103/103/103 104/104/104 100/100/100
f 105/105/105 100/100/100 104/104/104
f 105/105/105 104/104/104 106/106/106
f 107/107/107 106/106/106 104/104/104
f 110/110/110 109/109/109 108/108/108
f 111/111/111 108/108/108 109/109/109
f 109/109/109 112/112/112 111/111/111
f 113/113/113 111/111/111 112/112/112
f 111/111/111 113/113/113 114/114/114
f 115/115/115 114/114/114 113/113/113
f 108/108/108 111/111/111 116/116/116
f 114/114/114 116/116/116 111/111/111
f 108/108/108 116/116/116 117/117/117
f 117/117/117 118/118/118 108/108/108
f 117/117/117 119/119/119 118/118/118
f 120/120/120 118/118/118 119/119/119
f 119/119/119 117/117/117 121/121/121
f 122/122/122 117/117/117 116/116/116
f 122/122/122 121/121/121 117/117/117
f 122/122/122 123/123/123 121/121/121
f 124/124/124 121/121/121 123/123/123
f 123/123/123 122/122/122 125/125/125
f 116/116/116 125/125/125 122/122/122
f 116/116/116 114/114/114 125/125/125
f 126/126/126 125/125/125 114/114/114
f 114/114/114 115/115/115 126/126/126
f 127/127/127 126/126/126 115/115/115
f 127/127/127 115/115/115 128/128/128
f 129/129/129 128/128/128 115/115/115
f 132/132/132 131/131/131 130/130/130
f 133/133/133 130/130/130 131/131/131
f 136/136/136 135/135/135 134/134/134
f 137/137/137 134/134/134 135/135/135
f 140/140/140 139/139/139 138/138/138
f 141/141/141 138/138/138 139/139/139
f 144/144/144 143/143/143 142/142/142
f 142/142/142 145/145/145 144/144/144
f 145/145/145 146/146/146 144/144/144
f 145/145/145 147/147/147 146/146/146
f 147/147/147 148/148/148 146/146/146
f 147/147/147 149/149/149 148/148/148
f 149/149/149 150/150/150 148/148/148
f 149/149/149 151/151/151 150/150/150
f 151/151/151 152/152/152 150/150/150
f 151/151/151 153/153/153 152/152/152
f 152/152/152 153/153/153 154/154/154
f 155/155/155 152/152/152 154/154/154
f 155/155/155 154/154/154 156/156/156
f 157/157/157 155/155/155 156/156/156
f 157/157/157 156/156/156 158/158/158
f 159/159/159 157/157/157 158/158/158
f 159/159/159 158/158/158 160/160/160
f 161/161/161 159/159/159 160/160/160
f 161/161/161 160/160/160 162/162/162
f 162/162/162 163/163/163 161/161/161
